{"title":"Dil ke liye (Ghost) - H.264 - 720p [HD] ~~~AbhinavRocks {{-HKRG-","uid":6966434,"size":46574168,"categoryP":"video","categoryS":"music_videos","magnet":"?xt=urn:btih:f0705b77607ad1b707eccfe1a7ac24b9c45f833a&amp;dn=Dil+ke+liye+%28Ghost%29+-+H.264+-+720p+%5BHD%5D+%7E%7E%7EAbhinavRocks+%7B%7B-HKRG-&amp;tr=udp%3A%2F%2Ftracker.openbittorrent.com%3A80&amp;tr=udp%3A%2F%2Fopen.demonii.com%3A1337&amp;tr=udp%3A%2F%2Ftracker.coppersurfer.tk%3A6969&amp;tr=udp%3A%2F%2Fexodus.desync.com%3A6969","seeders":1,"leechers":0,"uploader":"AbhiHKRG","files":6,"time":1326937244,"description":"Cover ::\n &lt;a href=&quot;\nhttp://i.minus.com/izx6xEYnCtFQ2.png&quot; rel=&quot;nofollow&quot; target=&quot;_NEW&quot;&gt;\nhttp://i.minus.com/izx6xEYnCtFQ2.png&lt;/a&gt;\n\n\nScreen ::\n &lt;a href=&quot;\nhttp://i.minus.com/ibp5BczdGUgcGe.png&quot; rel=&quot;nofollow&quot; target=&quot;_NEW&quot;&gt;\nhttp://i.minus.com/ibp5BczdGUgcGe.png&lt;/a&gt;\n &lt;a href=&quot;\nhttp://i.minus.com/im5vFtCzw8fKW.png&quot; rel=&quot;nofollow&quot; target=&quot;_NEW&quot;&gt;\nhttp://i.minus.com/im5vFtCzw8fKW.png&lt;/a&gt;\n &lt;a href=&quot;\nhttp://i.minus.com/iQI6JNT54ptg8.png&quot; rel=&quot;nofollow&quot; target=&quot;_NEW&quot;&gt;\nhttp://i.minus.com/iQI6JNT54ptg8.png&lt;/a&gt;\n &lt;a href=&quot;\nhttp://i.minus.com/ibdSY1ldx8UWuc.png&quot; rel=&quot;nofollow&quot; target=&quot;_NEW&quot;&gt;\nhttp://i.minus.com/ibdSY1ldx8UWuc.png&lt;/a&gt;\n &lt;a href=&quot;\nhttp://i.minus.com/iXS6MoMtMMPg7.png&quot; rel=&quot;nofollow&quot; target=&quot;_NEW&quot;&gt;\nhttp://i.minus.com/iXS6MoMtMMPg7.png&lt;/a&gt;\n &lt;a href=&quot;\nhttp://i.minus.com/ib15CKgfXPrFsu.png&quot; rel=&quot;nofollow&quot; target=&quot;_NEW&quot;&gt;\nhttp://i.minus.com/ib15CKgfXPrFsu.png&lt;/a&gt;\n &lt;a href=&quot;\nhttp://i.minus.com/ibtFU52PnX9u1h.png&quot; rel=&quot;nofollow&quot; target=&quot;_NEW&quot;&gt;\nhttp://i.minus.com/ibtFU52PnX9u1h.png&lt;/a&gt;\n &lt;a href=&quot;\nhttp://i.minus.com/id1l7YvUHDxkL.jpg&quot; rel=&quot;nofollow&quot; target=&quot;_NEW&quot;&gt;\nhttp://i.minus.com/id1l7YvUHDxkL.jpg&lt;/a&gt;\n\n\nGeneral Info ::\nFormat                           : AVI\nFormat/Info                      : Audio Video Interleave\nFile size                        : 44.4 MiB\nDuration                         : 2mn 32s\nOverall bit rate                 : 2 442 Kbps\n\n\nVideo Info ::\nID                               : 0\nFormat                           : AVC\nFormat/Info                      : Advanced Video Codec\nFormat profile                   : &lt;a class=&quot;__cf_email__&quot; href=&quot;/cdn-cgi/l/email-protection&quot; data-cfemail=&quot;e9a1808e81a9a5dcc7d8&quot;&gt;[email&amp;#160;protected]&lt;/a&gt;&lt;script cf-hash='f9e31' type=&quot;text/javascript&quot;&gt;\n/* &lt;![CDATA[ */!function(){try{var t=&quot;currentScript&quot;in document?document.currentScript:function(){for(var t=document.getElementsByTagName(&quot;script&quot;),e=t.length;e--;)if(t[e].getAttribute(&quot;cf-hash&quot;))return t[e]}();if(t&amp;&amp;t.previousSibling){var e,r,n,i,c=t.previousSibling,a=c.getAttribute(&quot;data-cfemail&quot;);if(a){for(e=&quot;&quot;,r=parseInt(a.substr(0,2),16),n=2;a.length-n;n+=2)i=parseInt(a.substr(n,2),16)^r,e+=String.fromCharCode(i);e=document.createTextNode(e),c.parentNode.replaceChild(e,c)}}}catch(u){}}();/* ]]&gt; */&lt;/script&gt;\nFormat settings, CABAC           : Yes\nFormat settings, ReFrames        : 2 frames\nCodec ID                         : H264\nDuration                         : 10s 0ms\nBit rate                         : 2 111 Kbps\nWidth                            : 1 280 pixels\nHeight                           : 544 pixels\nDisplay aspect ratio             : 2.35:1\nFrame rate                       : 30.000 fps\nColor space                      : YUV\nChroma subsampling               : 4:2:0\nBit depth                        : 8 bits\nScan type                        : Progressive\nBits/(Pixel*Frame)               : 0.101\nStream size                      : 38.4 MiB (86%)\n\n\nAudio Info ::\nID                               : 1\nFormat                           : MPEG Audio\nFormat version                   : Version 1\nFormat profile                   : Layer 3\nCodec ID                         : 55\nCodec ID/Hint                    : MP3\nDuration                         : 2mn 32s\nBit rate mode                    : Constant\nBit rate                         : 320 Kbps\nChannel(s)                       : 2 channels\nSampling rate                    : 48.0 KHz\nCompression mode                 : Lossy\nStream size                      : 5.82 MiB (13%)","torrent":{"xt":"urn:btih:f0705b77607ad1b707eccfe1a7ac24b9c45f833a","amp;dn":"Dil+ke+liye+%28Ghost%29+-+H.264+-+720p+%5BHD%5D+%7E%7E%7EAbhinavRocks+%7B%7B-HKRG-","amp;tr":["udp%3A%2F%2Ftracker.openbittorrent.com%3A80","udp%3A%2F%2Fopen.demonii.com%3A1337","udp%3A%2F%2Ftracker.coppersurfer.tk%3A6969","udp%3A%2F%2Fexodus.desync.com%3A6969"],"infoHash":"f0705b77607ad1b707eccfe1a7ac24b9c45f833a","infoHashBuffer":{"type":"Buffer","data":[240,112,91,119,96,122,209,183,7,236,207,225,167,172,36,185,196,95,131,58]},"announce":[],"urlList":[]}}